<svg width="50" height="44" viewBox="0 0 50 44" fill="none" xmlns="http://www.w3.org/2000/svg">
<path d="M45.19 0.849976H4.81C2.16 0.849976 0 2.99998 0 5.64998V38.34C0 40.99 2.16 43.15 4.81 43.15H45.19C47.84 43.15 50 40.99 50 38.34V5.64998C50 2.99998 47.84 0.849976 45.19 0.849976ZM4.81 4.68998H45.19C45.72 4.68998 46.15 5.11998 46.15 5.64998V9.97997H3.85V5.64998C3.85 5.11998 4.28 4.68998 4.81 4.68998ZM45.19 39.31H4.81C4.28 39.31 3.85 38.88 3.85 38.35V13.83H46.16V38.35C46.15 38.88 45.72 39.31 45.19 39.31Z" fill="#2E2E2E"/>
<path d="M7.20999 9.01993C8.27038 9.01993 9.12999 8.16032 9.12999 7.09993C9.12999 6.03954 8.27038 5.17993 7.20999 5.17993C6.14961 5.17993 5.28999 6.03954 5.28999 7.09993C5.28999 8.16032 6.14961 9.01993 7.20999 9.01993Z" fill="#2E2E2E"/>
<path d="M12.98 9.01993C14.0404 9.01993 14.9 8.16032 14.9 7.09993C14.9 6.03954 14.0404 5.17993 12.98 5.17993C11.9196 5.17993 11.06 6.03954 11.06 7.09993C11.06 8.16032 11.9196 9.01993 12.98 9.01993Z" fill="#2E2E2E"/>
<path d="M18.75 9.01993C19.8104 9.01993 20.67 8.16032 20.67 7.09993C20.67 6.03954 19.8104 5.17993 18.75 5.17993C17.6896 5.17993 16.83 6.03954 16.83 7.09993C16.83 8.16032 17.6896 9.01993 18.75 9.01993Z" fill="#2E2E2E"/>
<path d="M19.55 22.66C19.12 21.69 17.98 21.25 17.01 21.68L8.36 25.53C7.67 25.84 7.22 26.53 7.22 27.29C7.22 28.05 7.67 28.74 8.36 29.05L17.01 32.9C17.26 33.01 17.53 33.07 17.79 33.07C18.53 33.07 19.23 32.64 19.55 31.93C19.98 30.96 19.54 29.82 18.57 29.39L13.87 27.3L18.57 25.21C19.54 24.77 19.98 23.63 19.55 22.66Z" fill="#0F4C81"/>
<path d="M40.69 25.53L32.04 21.68C31.07 21.25 29.93 21.69 29.5 22.66C29.07 23.63 29.51 24.77 30.48 25.2L35.18 27.29L30.48 29.38C29.51 29.81 29.07 30.95 29.5 31.92C29.82 32.64 30.52 33.06 31.26 33.06C31.52 33.06 31.79 33.01 32.04 32.89L40.69 29.04C41.38 28.73 41.83 28.04 41.83 27.28C41.83 26.53 41.38 25.84 40.69 25.53Z" fill="#0F4C81"/>
<path d="M27.02 16.7999C26.01 16.4799 24.93 17.0499 24.61 18.0599L19.8 33.4499C19.48 34.4599 20.05 35.5399 21.06 35.8599C21.25 35.9199 21.44 35.9499 21.63 35.9499C22.45 35.9499 23.21 35.4199 23.46 34.5999L28.27 19.2199C28.59 18.1899 28.03 17.1199 27.02 16.7999Z" fill="#0F4C81"/>
</svg>
