<svg width="50" height="50" viewBox="0 0 50 50" fill="none" xmlns="http://www.w3.org/2000/svg">
<path d="M48.5 0H42.5C41.67 0 41 0.67 41 1.5V3H28.86C28.41 1.28 26.86 0 25 0C23.14 0 21.59 1.28 21.14 3H9V1.5C9 0.67 8.33 0 7.5 0H1.5C0.67 0 0 0.67 0 1.5V7.5C0 8.33 0.67 9 1.5 9H7.5C8.33 9 9 8.33 9 7.5V6H14.84C13.62 6.79 12.46 7.7 11.42 8.78C8.12 12.17 6.25 16.51 6.04 21.13C4.29 21.57 3 23.13 3 25C3 27.21 4.79 29 7 29C9.21 29 11 27.21 11 25C11 23.53 10.2 22.26 9.02 21.57C9.13 17.57 10.72 13.8 13.56 10.87C15.84 8.53 18.68 6.98 21.76 6.33C22.49 7.34 23.66 8 25 8C26.34 8 27.51 7.34 28.24 6.33C31.33 6.97 34.16 8.53 36.44 10.87C39.29 13.8 40.87 17.57 40.98 21.57C39.8 22.26 39 23.53 39 25C39 27.21 40.79 29 43 29C45.21 29 47 27.21 47 25C47 23.13 45.71 21.57 43.97 21.13C43.76 16.51 41.89 12.16 38.59 8.78C37.54 7.7 36.39 6.79 35.16 6H41V7.5C41 8.33 41.67 9 42.5 9H48.5C49.33 9 50 8.33 50 7.5V1.5C50 0.67 49.33 0 48.5 0Z" fill="#0F4C81"/>
<path d="M37.35 28.59L26 12V26.61C28.01 27.06 29.5 28.85 29.5 31C29.5 31.34 29.46 31.68 29.39 32C29.01 33.69 27.69 35.01 26 35.39C25.68 35.46 25.34 35.5 25 35.5C24.66 35.5 24.34 35.46 24.02 35.39C22.32 35.02 20.99 33.69 20.61 32C20.54 31.68 20.5 31.34 20.5 31C20.5 28.85 22 27.05 24.02 26.61V12L12.67 28.59C12.43 29.1 12.11 29.93 12.02 31C11.95 31.89 12.07 32.63 12.19 33.13L17.02 42H33L37.84 33.13C37.96 32.63 38.07 31.89 38 31C37.91 29.93 37.6 29.1 37.35 28.59Z" fill="#2E2E2E"/>
<path d="M25 33C26.1046 33 27 32.1046 27 31C27 29.8954 26.1046 29 25 29C23.8954 29 23 29.8954 23 31C23 32.1046 23.8954 33 25 33Z" fill="#2E2E2E"/>
<path d="M25.17 44C22.92 43.98 16.85 43.93 14 48C13.47 48.76 13.17 49.48 13 50H37C36.83 49.49 36.54 48.76 36 48C33.24 44.07 27.48 44.02 25.17 44Z" fill="#2E2E2E"/>
</svg>
