<svg width="32" height="50" viewBox="0 0 32 50" fill="none" xmlns="http://www.w3.org/2000/svg">
<path d="M26.69 0H5.31C2.72 0 0.619995 2.1 0.619995 4.69V45.31C0.619995 47.9 2.72 50 5.31 50H26.69C29.28 50 31.38 47.9 31.38 45.31V4.69C31.38 2.1 29.28 0 26.69 0ZM5.31 2.97H26.69C27.64 2.97 28.41 3.74 28.41 4.69V35.27H3.59V4.69C3.59 3.74 4.36 2.97 5.31 2.97ZM26.69 47.03H5.31C4.36 47.03 3.59 46.26 3.59 45.31V38.24H28.41V45.31C28.41 46.26 27.64 47.03 26.69 47.03Z" fill="#2E2E2E"/>
<path d="M16.53 45.31C18.0046 45.31 19.2 44.1146 19.2 42.64C19.2 41.1654 18.0046 39.97 16.53 39.97C15.0554 39.97 13.86 41.1654 13.86 42.64C13.86 44.1146 15.0554 45.31 16.53 45.31Z" fill="#0F4C81"/>
<path d="M14.4 7.35997H17.61C18.2 7.35997 18.68 6.87997 18.68 6.28997C18.68 5.69997 18.2 5.21997 17.61 5.21997H14.4C13.81 5.21997 13.33 5.69997 13.33 6.28997C13.33 6.87997 13.81 7.35997 14.4 7.35997Z" fill="#2E2E2E"/>
</svg>
