<?xml version="1.0" encoding="utf-8"?>
<!-- Generator: Adobe Illustrator 25.2.0, SVG Export Plug-In . SVG Version: 6.00 Build 0)  -->
<svg version="1.1" id="Calque_1" xmlns="http://www.w3.org/2000/svg" xmlns:xlink="http://www.w3.org/1999/xlink" x="0px" y="0px"
	 viewBox="0 0 150 37" style="enable-background:new 0 0 150 37;" xml:space="preserve">
<style type="text/css">
	.st0{fill:#0F4C81;}
	.st1{fill:#FF9800;}
</style>
<g id="Logo_3_">
	<g>
		<g>
			<path class="st0" d="M58.75,0.36c-6.04,0-10.8,4.4-10.8,10.97c0,5.47,3.39,10.74,10.71,10.74c7.32,0,10.62-5.38,10.68-10.77
				C69.4,5.89,65.86,0.42,58.75,0.36z M58.66,18.47c-4.91,0-6.75-3.66-6.84-7.08c-0.12-4.13,2.5-7.47,6.93-7.47
				c4.79,0.09,6.78,3.96,6.72,7.44C65.41,14.79,63.57,18.47,58.66,18.47z"/>
			<path class="st0" d="M80.61,6.7c-1.84,0-3.33,0.74-4.82,2.2L75.56,6.9h-3.24V21.6h3.6v-7.5c0-2.23,1.52-4.1,3.75-4.1
				c2.32,0,3.54,1.7,3.54,3.93v7.67h3.63v-7.7C86.83,9.28,84.06,6.7,80.61,6.7z"/>
			<path class="st0" d="M101.97,8.93c-0.86-1.52-3.27-2.35-4.82-2.35c-4.28,0-7.47,2.62-7.47,7.67c0,4.82,3.24,7.67,7.55,7.67
				c1.79,0,3.6-0.59,4.73-2.35l0.24,2.02h3.39V0.81h-3.63V8.93z M97.48,18.56c-2.32,0-4.16-1.76-4.16-4.31
				c0-2.65,1.84-4.28,4.16-4.28c2.29,0,4.25,1.72,4.25,4.28C101.73,16.9,99.77,18.56,97.48,18.56z"/>
			<path class="st0" d="M116.22,6.64c-4.67,0-7.58,3.45-7.58,7.64c0,4.22,2.86,7.64,7.61,7.64c4.76,0,7.64-3.42,7.64-7.64
				C123.89,10.09,120.89,6.64,116.22,6.64z M116.25,18.59c-2.65,0-3.99-2.08-3.99-4.31c0-2.2,1.37-4.34,3.99-4.34
				c2.44,0,3.99,2.14,3.99,4.34C120.24,16.51,118.9,18.59,116.25,18.59z"/>
			<rect x="127.02" y="0.81" class="st0" width="3.6" height="20.79"/>
			<path class="st0" d="M141.33,6.64c-4.67,0-7.58,3.45-7.58,7.64c0,4.22,2.86,7.64,7.61,7.64c4.76,0,7.64-3.42,7.64-7.64
				C149,10.09,146,6.64,141.33,6.64z M141.36,18.59c-2.65,0-3.99-2.08-3.99-4.31c0-2.2,1.37-4.34,3.99-4.34
				c2.44,0,3.99,2.14,3.99,4.34C145.34,16.51,144,18.59,141.36,18.59z"/>
		</g>
		<g>
			<path d="M56.72,30.54c-1.22-0.18-2.25-0.45-2.25-1.41c0-0.94,0.9-1.49,2.15-1.49c0.97,0.01,1.86,0.42,2.29,1.1l1.13-0.8
				c-0.78-1.32-2.12-1.66-3.46-1.66c-1.67,0-3.59,0.79-3.58,2.83c0,2.11,1.75,2.61,3.59,2.88c1.3,0.18,2.37,0.55,2.37,1.62
				c0,1.24-1.23,1.64-2.35,1.64c-1.07,0-2.23-0.42-2.89-1.62l-1.11,0.79c0.85,1.66,2.21,2.24,3.99,2.24c1.93,0,3.83-0.83,3.84-3.04
				C60.45,31.38,58.63,30.82,56.72,30.54z"/>
			<polygon points="67.99,30.9 65.43,26.55 63.66,26.55 63.66,26.62 67.24,32.37 67.24,36.41 68.73,36.41 68.73,32.37 72.41,26.62 
				72.41,26.55 70.62,26.55 			"/>
			<path d="M79.59,30.54c-1.22-0.18-2.25-0.45-2.25-1.41c0-0.94,0.9-1.49,2.15-1.49c0.97,0.01,1.86,0.42,2.29,1.1l1.13-0.8
				c-0.78-1.32-2.12-1.66-3.46-1.66c-1.67,0-3.59,0.79-3.58,2.83c0,2.11,1.75,2.61,3.59,2.88c1.3,0.18,2.37,0.55,2.37,1.62
				c0,1.24-1.23,1.64-2.35,1.64c-1.07,0-2.23-0.42-2.89-1.62l-1.11,0.79c0.85,1.66,2.21,2.24,3.99,2.24c1.93,0,3.83-0.83,3.84-3.04
				C83.32,31.38,81.5,30.82,79.59,30.54z"/>
			<path d="M86.87,27.97h3.05v8.44h1.5v-8.44h3.04v-1.42c-2.66,0-4.92,0-7.58,0V27.97z"/>
			<path d="M100.14,32.21h5.12v-1.47h-5.12v-2.66h5.33v-1.54h-6.81c0,3.28,0,6.58,0,9.87h6.85v-1.55h-5.37V32.21z"/>
			<path d="M115.03,31.19l-3.06-4.62c-0.6,0-1.14,0-1.72,0v9.87h1.48v-7.57l3.11,4.66h0.32l3.15-4.66v7.57h1.48v-9.87h-1.72
				L115.03,31.19z"/>
			<rect x="131.07" y="26.55" width="1.47" height="9.87"/>
			<path d="M136.76,26.55v1.42h3.05v8.44h1.5v-8.44h3.04v-1.42C141.67,26.55,139.42,26.55,136.76,26.55z"/>
		</g>
	</g>
	<g>
		<polygon class="st0" points="8.44,32.63 1,23.31 2.82,15.34 		"/>
		<polygon class="st0" points="18.21,1.12 3.65,11.7 4.56,7.69 		"/>
		<polygon class="st0" points="34.34,11.7 19.77,1.12 33.42,7.69 		"/>
		<polygon class="st0" points="36.99,23.31 29.55,32.63 35.17,15.34 		"/>
		<polygon class="st0" points="29.39,32.84 27,35.83 10.99,35.83 8.6,32.84 		"/>
		<polygon class="st0" points="18.76,28.68 11.52,28.68 6.9,14.47 9.47,12.6 		"/>
		<polygon class="st0" points="27.77,12.07 10.21,12.07 18.99,5.68 		"/>
		<polygon class="st0" points="31.08,14.47 26.46,28.68 19.22,28.68 28.51,12.6 		"/>
		<polygon class="st1" points="21.62,16.22 18.99,20.78 16.36,16.22 		"/>
	</g>
</g>
</svg>
