<?xml version="1.0" encoding="utf-8"?>
<!-- Generator: Adobe Illustrator 25.2.0, SVG Export Plug-In . SVG Version: 6.00 Build 0)  -->
<svg version="1.1" id="Calque_1" xmlns="http://www.w3.org/2000/svg" xmlns:xlink="http://www.w3.org/1999/xlink" x="0px" y="0px"
	 viewBox="0 0 150 37" style="enable-background:new 0 0 150 37;" xml:space="preserve">
<style type="text/css">
	.st0{fill:#FFFFFF;}
</style>
<g id="Logo_3_">
	<g>
		<g>
			<path class="st0" d="M58.8,0.4c-6,0-10.8,4.4-10.8,11c0,5.5,3.4,10.7,10.7,10.7s10.6-5.4,10.7-10.8C69.4,5.9,65.9,0.4,58.8,0.4z
				 M58.7,18.5c-4.9,0-6.8-3.7-6.8-7.1c-0.1-4.1,2.5-7.5,6.9-7.5c4.8,0.1,6.8,4,6.7,7.4C65.4,14.8,63.6,18.5,58.7,18.5z"/>
			<path class="st0" d="M80.6,6.7c-1.8,0-3.3,0.7-4.8,2.2l-0.2-2h-3.2v14.7H76v-7.5c0-2.2,1.5-4.1,3.8-4.1s3.5,1.7,3.5,3.9v7.7h3.6
				v-7.7C86.8,9.3,84.1,6.7,80.6,6.7z"/>
			<path class="st0" d="M102,8.9c-0.9-1.5-3.3-2.3-4.8-2.3c-4.3,0-7.5,2.6-7.5,7.7c0,4.8,3.2,7.7,7.6,7.7c1.8,0,3.6-0.6,4.7-2.4
				l0.2,2h3.4V0.8H102V8.9L102,8.9z M97.5,18.6c-2.3,0-4.2-1.8-4.2-4.3c0-2.6,1.8-4.3,4.2-4.3c2.3,0,4.2,1.7,4.2,4.3
				S99.8,18.6,97.5,18.6z"/>
			<path class="st0" d="M116.2,6.6c-4.7,0-7.6,3.5-7.6,7.6c0,4.2,2.9,7.6,7.6,7.6c4.8,0,7.6-3.4,7.6-7.6
				C123.9,10.1,120.9,6.6,116.2,6.6z M116.2,18.6c-2.7,0-4-2.1-4-4.3s1.4-4.3,4-4.3c2.4,0,4,2.1,4,4.3S118.9,18.6,116.2,18.6z"/>
			<rect x="127" y="0.8" class="st0" width="3.6" height="20.8"/>
			<path class="st0" d="M141.3,6.6c-4.7,0-7.6,3.5-7.6,7.6c0,4.2,2.9,7.6,7.6,7.6c4.8,0,7.6-3.4,7.6-7.6C149,10.1,146,6.6,141.3,6.6
				z M141.4,18.6c-2.6,0-4-2.1-4-4.3s1.4-4.3,4-4.3c2.4,0,4,2.1,4,4.3C145.3,16.5,144,18.6,141.4,18.6z"/>
		</g>
		<g>
			<path class="st0" d="M56.7,30.5c-1.2-0.2-2.2-0.5-2.2-1.4s0.9-1.5,2.2-1.5c1,0,1.9,0.4,2.3,1.1l1.1-0.8c-0.8-1.3-2.1-1.7-3.5-1.7
				C54.9,26.2,53,27,53,29c0,2.1,1.8,2.6,3.6,2.9c1.3,0.2,2.4,0.5,2.4,1.6c0,1.2-1.2,1.6-2.3,1.6s-2.2-0.4-2.9-1.6l-1.1,0.8
				c0.8,1.7,2.2,2.2,4,2.2c1.9,0,3.8-0.8,3.8-3C60.5,31.4,58.6,30.8,56.7,30.5z"/>
			<polygon class="st0" points="68,30.9 65.4,26.5 63.7,26.5 63.7,26.6 67.2,32.4 67.2,36.4 68.7,36.4 68.7,32.4 72.4,26.6 
				72.4,26.5 70.6,26.5 			"/>
			<path class="st0" d="M79.6,30.5c-1.2-0.2-2.2-0.5-2.2-1.4s0.9-1.5,2.2-1.5c1,0,1.9,0.4,2.3,1.1l1.1-0.8c-0.8-1.3-2.1-1.7-3.5-1.7
				c-1.7,0-3.6,0.8-3.6,2.8c0,2.1,1.8,2.6,3.6,2.9c1.3,0.2,2.4,0.5,2.4,1.6c0,1.2-1.2,1.6-2.3,1.6c-1.1,0-2.2-0.4-2.9-1.6l-1.1,0.8
				c0.8,1.7,2.2,2.2,4,2.2c1.9,0,3.8-0.8,3.8-3C83.3,31.4,81.5,30.8,79.6,30.5z"/>
			<path class="st0" d="M86.9,28H90v8.4h1.5V28h3v-1.4c-2.7,0-4.9,0-7.6,0V28L86.9,28z"/>
			<path class="st0" d="M100.1,32.2h5.1v-1.5h-5.1V28h5.3v-1.5h-6.8c0,3.3,0,6.6,0,9.9h6.8v-1.5H100L100.1,32.2L100.1,32.2z"/>
			<path class="st0" d="M115,31.2l-3.1-4.6c-0.6,0-1.1,0-1.7,0v9.9h1.5v-7.6l3.1,4.7h0.3l3.2-4.7v7.6h1.5v-9.9h-1.7L115,31.2z"/>
			<rect x="131.1" y="26.5" class="st0" width="1.5" height="9.9"/>
			<path class="st0" d="M136.8,26.5V28h3.1v8.4h1.5V28h3v-1.4C141.7,26.5,139.4,26.5,136.8,26.5z"/>
		</g>
	</g>
	<g>
		<polygon class="st0" points="8.4,32.6 1,23.3 2.8,15.3 		"/>
		<polygon class="st0" points="18.2,1.1 3.7,11.7 4.6,7.7 		"/>
		<polygon class="st0" points="34.3,11.7 19.8,1.1 33.4,7.7 		"/>
		<polygon class="st0" points="37,23.3 29.5,32.6 35.2,15.3 		"/>
		<polygon class="st0" points="29.4,32.8 27,35.8 11,35.8 8.6,32.8 		"/>
		<polygon class="st0" points="18.8,28.7 11.5,28.7 6.9,14.5 9.5,12.6 		"/>
		<polygon class="st0" points="27.8,12.1 10.2,12.1 19,5.7 		"/>
		<polygon class="st0" points="31.1,14.5 26.5,28.7 19.2,28.7 28.5,12.6 		"/>
		<polygon class="st0" points="21.6,16.2 19,20.8 16.4,16.2 		"/>
	</g>
</g>
</svg>
