<svg width="52" height="42" viewBox="0 0 52 42" fill="none" xmlns="http://www.w3.org/2000/svg">
<path d="M39.5 19.755C39.5 12.295 33.46 6.255 26 6.255C18.54 6.255 12.5 12.295 12.5 19.755C12.5 23.185 13.77 26.305 15.87 28.685L15.33 32.455C15.3 32.995 15.56 33.495 16 33.755C16.45 34.015 16.91 33.915 17.02 33.885L20.86 32.245C22.45 32.895 24.18 33.255 26 33.255C33.46 33.255 39.5 27.215 39.5 19.755ZM33 17.255C34.38 17.255 35.5 18.375 35.5 19.755C35.5 21.135 34.38 22.255 33 22.255C31.62 22.255 30.5 21.135 30.5 19.755C30.5 18.375 31.62 17.255 33 17.255ZM19 22.255C17.62 22.255 16.5 21.135 16.5 19.755C16.5 18.375 17.62 17.255 19 17.255C20.38 17.255 21.5 18.375 21.5 19.755C21.5 21.135 20.38 22.255 19 22.255ZM23.5 19.755C23.5 18.375 24.62 17.255 26 17.255C27.38 17.255 28.5 18.375 28.5 19.755C28.5 21.135 27.38 22.255 26 22.255C24.62 22.255 23.5 21.135 23.5 19.755Z" fill="#2E2E2E"/>
<path d="M44.71 14.295C42.34 6.19501 34.86 0.255005 26 0.255005C17.07 0.255005 9.61997 6.12501 7.28997 14.295C3.38997 15.865 0.899975 19.315 0.999975 22.755C1.14997 27.635 6.47997 31.205 7.99997 30.755C8.03997 30.745 8.09997 30.725 9.37997 30.295C9.79997 30.155 10.6 29.885 11 29.755C10.56 27.745 10.19 25.385 9.99997 22.755C9.81997 20.145 9.85997 17.795 9.99997 15.755C9.99997 15.755 9.99997 15.745 9.98997 15.745C11.76 8.51501 18.21 3.255 25.99 3.255C33.72 3.255 40.21 8.60501 41.99 15.795C42.13 17.825 42.17 20.165 41.99 22.755C41.95 23.265 41.9 23.755 41.86 24.245C40.24 29.955 35.62 34.405 29.82 35.785C29.72 35.765 29.61 35.745 29.5 35.745H22.5C21.67 35.745 21 36.415 21 37.245V40.245C21 41.075 21.67 41.745 22.5 41.745H29.5C30.33 41.745 31 41.075 31 40.245V38.575C35.77 37.305 39.82 34.285 42.42 30.225C42.49 30.245 42.56 30.275 42.62 30.295C43.89 30.725 43.96 30.745 44 30.755C45.52 31.205 50.85 27.635 51 22.755C51.1 19.315 48.61 15.865 44.71 14.295Z" fill="#0F4C81"/>
</svg>
