<svg width="50" height="50" viewBox="0 0 50 50" fill="none" xmlns="http://www.w3.org/2000/svg">
<path d="M46 7.3H43V3.4C43 1.5 41.5 0 39.6 0H10.1C8.20001 0 6.70001 1.5 6.70001 3.4V7.3H4.00001C2.10001 7.3 0.600006 8.8 0.600006 10.7V38.8C0.600006 40.7 2.10001 42.2 4.00001 42.2H18.2V44.5C17.2 44.8 16 45.4 15.3 46.7C15 47.2 14.8 47.8 14.7 48.4L14.5 50H35.5L35.4 48.4C35.4 47.8 35.2 47.3 35 46.8C34.3 45.3 32.9 44.7 31.8 44.5V42.2H46C47.9 42.2 49.4 40.7 49.4 38.8V10.7C49.4 8.8 47.9 7.3 46 7.3ZM28.8 44.2H21.3V42.1H28.8V44.2ZM46 10.3C46.2 10.3 46.4 10.5 46.4 10.7V30.3H43V10.3H46ZM9.70001 3.4C9.70001 3.2 9.90001 3 10.1 3H39.6C39.8 3 40 3.2 40 3.4V30.2H9.70001V3.4ZM4.00001 10.3H6.70001V30.3H3.60001V10.7C3.60001 10.4 3.80001 10.3 4.00001 10.3ZM46 39.1H4.00001C3.80001 39.1 3.60001 38.9 3.60001 38.7V33.2H6.70001H43H46.4V38.7C46.4 39 46.2 39.1 46 39.1Z" fill="#2E2E2E"/>
<path d="M15.6 28.8H34.4V9.59998H15.6V28.8ZM17.6 26.9V22C17.8 22 18.1 21.9 18.3 21.9C20.2 21.7 21.6 22.8 23 24C24.2 25 25.5 26 27.1 26C27.3 26 27.6 26 27.8 25.9C28.9 25.7 29.7 25.1 30.4 24.6C31.2 24 31.7 23.7 32.3 23.7V26.8H17.6V26.9ZM32.5 11.6V21.7C31.2 21.6 30.2 22.4 29.4 23C28.8 23.5 28.2 23.9 27.6 24C26.6 24.2 25.7 23.5 24.4 22.5C22.9 21.3 21 19.8 18.3 20C18.1 20 17.9 20 17.8 20.1V11.7H32.5V11.6Z" fill="#0F4C81"/>
<path d="M27.6 20C29.4 20 30.9 18.5 30.9 16.7C30.9 14.9 29.4 13.4 27.6 13.4C25.8 13.4 24.3 14.9 24.3 16.7C24.3 18.5 25.7 20 27.6 20ZM27.6 15.4C28.3 15.4 28.9 16 28.9 16.7C28.9 17.4 28.3 18 27.6 18C26.9 18 26.3 17.4 26.3 16.7C26.3 16 26.8 15.4 27.6 15.4Z" fill="#0F4C81"/>
<path d="M18.9001 7.30005H30.8001C31.4001 7.30005 31.8001 6.90005 31.8001 6.30005C31.8001 5.70005 31.4001 5.30005 30.8001 5.30005H18.9001C18.3001 5.30005 17.9001 5.70005 17.9001 6.30005C17.9001 6.90005 18.3001 7.30005 18.9001 7.30005Z" fill="#2E2E2E"/>
<path d="M25 34.4C23.9 34.4 23.1 35.3 23.1 36.3C23.1 37.4 24 38.2 25 38.2C26.1 38.2 26.9 37.3 26.9 36.3C26.9 35.2 26.1 34.4 25 34.4Z" fill="#2E2E2E"/>
</svg>
